<?xml version="1.0" standalone="no"?>
<!DOCTYPE svg PUBLIC "-//W3C//DTD SVG 20010904//EN"
 "http://www.w3.org/TR/2001/REC-SVG-20010904/DTD/svg10.dtd">
<svg version="1.0" xmlns="http://www.w3.org/2000/svg"
 width="676.000000pt" height="369.000000pt" viewBox="0 0 676.000000 369.000000"
 preserveAspectRatio="xMidYMid meet">

<g transform="translate(0.000000,369.000000) scale(0.100000,-0.100000)"
fill="#000000" stroke="none">
<path d="M3118 2769 c-22 -50 -22 -50 -61 -44 -33 6 -39 4 -44 -14 -3 -12 -13
-21 -22 -21 -26 0 -58 -34 -71 -77 -7 -21 -30 -74 -50 -118 -62 -133 -180
-430 -180 -453 0 -31 56 -65 82 -51 14 8 24 7 36 -3 15 -12 16 -11 4 4 -12 14
-10 19 15 32 l28 15 -37 15 c-26 11 -36 21 -32 31 8 19 16 19 94 -5 67 -21
125 -26 116 -11 -3 4 -43 18 -88 31 -46 13 -87 27 -92 31 -10 9 215 579 229
579 41 -1 37 -17 -64 -266 -56 -136 -101 -254 -101 -260 0 -6 37 -26 81 -44
89 -36 208 -110 251 -156 20 -21 26 -36 21 -52 -6 -23 -6 -23 -41 10 -34 31
-34 30 4 -13 23 -25 49 -67 59 -95 24 -65 26 -67 65 -51 20 9 28 16 19 19 -8
3 11 3 41 1 76 -6 152 -45 189 -95 23 -31 31 -37 31 -22 0 10 -7 32 -15 48 -8
15 -15 30 -15 32 0 2 92 4 205 4 186 0 207 2 224 19 18 18 27 41 106 255 20
54 45 112 55 128 16 27 18 27 23 9 3 -12 0 -19 -7 -18 -14 3 -12 -5 30 -123 5
-13 8 -12 19 4 9 12 11 25 6 35 -5 9 -6 23 -3 31 5 13 3 13 -13 0 -17 -14 -18
-13 -13 7 4 16 2 20 -8 16 -8 -3 -14 -1 -14 5 0 6 6 12 13 15 9 3 8 13 -6 37
-18 33 -18 34 14 128 35 101 34 121 -11 132 -23 5 -33 18 -43 51 -4 11 -22 19
-51 23 -51 8 -54 15 -31 70 16 38 13 56 -9 56 -20 0 -40 -27 -25 -32 15 -5
-14 -98 -78 -248 -45 -106 -72 -151 -59 -98 6 26 5 27 -23 17 -16 -6 -44 -9
-63 -7 l-33 4 40 19 40 19 -30 6 -30 7 35 16 c30 14 32 16 12 17 -28 0 -25 23
4 28 30 6 41 22 15 22 -29 0 -23 24 7 28 12 2 22 8 22 13 0 5 -3 8 -7 8 -31
-5 -36 3 -15 21 13 10 18 21 12 25 -6 4 -5 13 2 25 7 10 16 16 21 13 5 -3 6 3
3 14 -5 15 1 22 29 32 43 15 47 36 5 28 -16 -4 -30 -5 -30 -4 0 1 14 38 30 81
17 43 28 81 26 83 -8 8 -104 -27 -116 -43 -16 -18 -2 -18 44 1 20 8 36 12 36
8 0 -7 -86 -235 -169 -448 l-38 -100 -97 -48 c-71 -36 -115 -66 -162 -112 -35
-34 -64 -61 -64 -59 0 12 181 487 199 522 11 22 48 68 81 102 63 64 72 77 43
61 -24 -12 -59 -46 -110 -104 l-41 -48 -21 34 c-30 48 -116 127 -186 169 -47
28 -205 98 -222 98 -2 0 -13 -23 -25 -51z m180 -35 c71 -34 109 -61 161 -112
37 -37 75 -83 84 -103 l17 -37 -116 -298 c-63 -164 -116 -300 -118 -301 -1 -1
-22 25 -46 59 -61 84 -134 140 -259 200 -58 29 -107 52 -108 53 -3 1 198 506
227 574 13 30 33 25 158 -35z m811 -240 c5 -4 -14 -55 -118 -319 l-90 -230
-33 2 c-218 14 -306 14 -353 -1 -75 -23 -67 -10 17 29 69 31 183 58 287 67 37
3 26 -17 130 253 88 229 79 214 120 208 20 -3 38 -7 40 -9z m37 -63 c10 -24 6
-41 -21 -112 -17 -46 -64 -169 -104 -274 l-72 -190 -212 -2 c-152 -1 -230 -5
-275 -16 -110 -27 -123 -1 -25 50 97 49 181 59 338 40 110 -13 132 -13 141 -2
6 8 55 131 109 275 55 143 102 260 105 260 3 0 11 -13 16 -29z m-292 -170 c3
-5 0 -13 -7 -19 -15 -12 -77 -14 -77 -2 0 5 15 14 33 19 43 12 45 12 51 2z
m-44 -106 c0 -16 -27 -32 -37 -22 -3 4 -3 13 0 22 8 20 37 20 37 0z m-140 -55
c0 -5 -4 -10 -10 -10 -5 0 -10 5 -10 10 0 6 5 10 10 10 6 0 10 -4 10 -10z
m-396 -211 c-3 -5 -13 -9 -22 -9 -15 0 -15 2 -2 10 12 7 12 12 2 22 -6 6 -12
17 -12 23 1 5 9 -1 20 -14 11 -12 17 -27 14 -32z m216 -79 c8 -5 11 -10 5 -10
-5 0 -17 5 -25 10 -8 5 -10 10 -5 10 6 0 17 -5 25 -10z"/>
<path d="M3505 1884 c-22 -7 -29 -11 -15 -8 14 3 75 9 135 13 l110 8 -95 1
c-58 0 -111 -5 -135 -14z"/>
<path d="M2606 2146 c4 -11 -2 -19 -20 -26 -36 -13 -33 -21 4 -9 30 11 39 32
20 44 -6 3 -7 -1 -4 -9z"/>
<path d="M2520 2120 c0 -5 5 -10 11 -10 5 0 7 5 4 10 -3 6 -8 10 -11 10 -2 0
-4 -4 -4 -10z"/>
<path d="M2525 2090 c-3 -6 1 -7 9 -4 18 7 21 14 7 14 -6 0 -13 -4 -16 -10z"/>
<path d="M2471 2064 c13 -16 12 -16 -8 -6 -19 11 -25 8 -56 -31 -52 -64 -76
-119 -88 -203 -20 -145 22 -276 119 -366 60 -56 105 -80 198 -104 62 -15 79
-16 130 -5 33 6 71 14 86 17 22 5 39 -4 91 -46 89 -74 179 -109 283 -109 105
-1 195 27 274 85 l60 44 60 -20 c98 -33 214 -20 284 32 31 22 82 26 114 9 40
-22 106 -22 170 -2 89 29 130 55 179 114 58 69 78 131 76 240 -1 70 -7 98 -27
142 -26 57 -36 64 -54 42 -9 -10 -6 -25 11 -58 16 -32 23 -67 25 -126 4 -71 1
-88 -23 -142 -30 -66 -79 -117 -147 -153 -60 -31 -175 -32 -233 -1 l-41 21
-57 -38 c-88 -60 -202 -67 -300 -19 l-47 23 -16 -23 c-27 -38 -129 -97 -199
-116 -92 -25 -179 -16 -271 29 -61 31 -164 117 -164 138 0 4 -21 -3 -47 -15
-38 -17 -66 -22 -138 -22 -79 0 -97 4 -149 29 -220 108 -279 405 -117 588 47
52 47 54 25 62 -15 6 -15 4 -3 -10z"/>
<path d="M4246 2015 c4 -10 0 -15 -11 -15 -10 0 -14 5 -9 13 5 9 4 9 -6 0 -15
-14 -3 -36 17 -29 8 3 11 1 8 -4 -3 -6 -1 -10 5 -10 6 0 30 -18 54 -40 36 -33
45 -38 55 -26 9 10 3 22 -25 52 -19 22 -42 38 -51 36 -8 -2 -13 1 -10 5 3 5
-3 14 -13 21 -16 10 -18 9 -14 -3z"/>
<path d="M2645 1954 c-16 -8 -37 -22 -45 -31 -13 -14 -13 -15 0 -8 8 5 21 13
28 19 8 5 35 9 60 8 26 -1 41 1 34 4 -6 3 -10 10 -6 15 9 15 -38 10 -71 -7z"/>
</g>
</svg>
